<svg width="44" height="47" viewBox="0 0 44 47" fill="none" xmlns="http://www.w3.org/2000/svg">
<g clip-path="url(#clip0)">
<path d="M17.294 12.0109C17.294 17.2594 13.4227 21.514 8.64701 21.514C3.87139 21.514 1.18393e-07 17.2594 0 12.0109C-1.18393e-07 6.76248 3.87139 8.71656e-08 8.64701 0C13.4227 -8.7166e-08 17.294 6.76248 17.294 12.0109Z" fill="#F4AEA4"/>
<path d="M10.6707 16.7148C10.6707 15.7094 9.76463 14.8944 8.64694 14.8944C7.52924 14.8944 6.62317 15.7094 6.62317 16.7148V45.1796C6.62317 46.185 7.52924 47 8.64694 47C9.76463 47 10.6707 46.185 10.6707 45.1796V16.7148Z" fill="#F4AEA4"/>
<path d="M30.9084 16.7148C30.9084 15.7094 30.0023 14.8944 28.8846 14.8944C27.7669 14.8944 26.8608 15.7094 26.8608 16.7148V45.1796C26.8608 46.185 27.7669 47 28.8846 47C30.0023 47 30.9084 46.185 30.9084 45.1796V16.7148Z" fill="#FBDD8A"/>
<path d="M22.0775 1.32394C22.0775 0.592749 22.7364 1.48368e-08 23.5493 0C24.3622 -1.48367e-08 25.0211 0.59275 25.0211 1.32394V10.5916C25.0211 11.3227 24.3622 11.9155 23.5493 11.9155C22.7364 11.9155 22.0775 11.3227 22.0775 10.5916V1.32394Z" fill="#FBDD8A"/>
<path d="M28.7007 0H28.7007C27.8878 0 27.2289 0.592748 27.2289 1.32394V11.2535C27.2289 11.9847 27.8878 12.5774 28.7007 12.5774H28.7007C29.5136 12.5774 30.1726 11.9847 30.1726 11.2535V1.32394C30.1726 0.592748 29.5136 0 28.7007 0Z" fill="#FBDD8A"/>
<path d="M33.8521 0H33.8521C33.0392 0 32.3802 0.592748 32.3802 1.32394V11.9155C32.3802 12.6467 33.0392 13.2394 33.8521 13.2394C34.665 13.2394 35.3239 12.6467 35.3239 11.9155V1.32394C35.3239 0.592748 34.665 0 33.8521 0Z" fill="#FBDD8A"/>
<path fill-rule="evenodd" clip-rule="evenodd" d="M31.2765 11.2536C31.886 11.2536 32.3803 10.7348 32.3803 10.0951C32.3803 10.0389 32.3765 9.98366 32.3691 9.92957H35.324V13.7912C35.324 18.0564 32.3587 21.5141 28.7007 21.5141C25.0428 21.5141 22.0775 18.0564 22.0775 13.7912V9.92957H25.0323C25.025 9.98366 25.0211 10.0389 25.0211 10.0951C25.0211 10.7348 25.5154 11.2536 26.125 11.2536C26.7346 11.2536 27.2289 10.7348 27.2289 10.0951C27.2289 10.0389 27.2251 9.98366 27.2177 9.92957H30.1837C30.1764 9.98366 30.1725 10.0389 30.1725 10.0951C30.1725 10.7348 30.6668 11.2536 31.2765 11.2536Z" fill="#FBDD8A"/>
<path d="M32.0834 6.6726C32.5739 6.13811 33.3519 4.99811 35.0746 4.99811C37.228 4.99811 37.2613 6.6726 39.8991 6.6726C42.0094 6.6726 42.8082 5.76789 43.0834 5.2647" stroke="#333333" stroke-linecap="round" stroke-linejoin="round"/>
<path d="M32.0834 3.3236C32.5739 2.78912 33.3519 1.64911 35.0746 1.64911C37.228 1.64911 37.2613 3.3236 39.8991 3.3236C42.0094 3.3236 42.8082 2.41889 43.0834 1.9157" stroke="#333333" stroke-linecap="round" stroke-linejoin="round"/>
<path d="M32.0834 10.0216C32.5739 9.48709 33.3519 8.34705 35.0746 8.34705C37.228 8.34705 37.2613 10.0216 39.8991 10.0216C42.0094 10.0216 42.8082 9.11686 43.0834 8.61363" stroke="#333333" stroke-linecap="round" stroke-linejoin="round"/>
</g>
<defs>
<clipPath id="clip0">
<rect width="44" height="47" fill="white"/>
</clipPath>
</defs>
</svg>
